<?xml version="1.0" encoding="UTF-8"?>
<svg height="128px" viewBox="0 0 128 128" width="128px" xmlns="http://www.w3.org/2000/svg">
    <path d="m 102.09375 119.988281 h -72.230469 c -4.429687 0 -8.023437 -3.59375 -8.023437 -8.023437 v -14.296875 c 0 -4.429688 3.59375 -8.023438 8.023437 -8.023438 h 72.230469 c 4.429688 0 8.023438 3.59375 8.023438 8.023438 v 14.296875 c 0 4.429687 -3.59375 8.023437 -8.023438 8.023437 z m 0 0" fill="#5e5c64"/>
    <path d="m 100.964844 113.96875 h -69.972656 c -5.054688 0 -9.152344 -4.097656 -9.152344 -9.152344 v -88.152344 c 0 -5.054687 4.097656 -9.152343 9.152344 -9.152343 h 69.972656 c 5.054687 0 9.152344 4.097656 9.152344 9.152343 v 88.152344 c 0 5.054688 -4.097657 9.152344 -9.152344 9.152344 z m 0 0" fill="#f4ecd8"/>
    <path d="m 30.992188 9.515625 c -5.070313 0 -9.152344 4.082031 -9.152344 9.15625 v 5.015625 h 85.59375 c 0.933594 0 1.832031 -0.144531 2.683594 -0.402344 v -4.613281 c 0 -5.074219 -4.082032 -9.15625 -9.152344 -9.15625 z m 0 0" fill="#5e5c64"/>
    <path d="m 30.992188 7.511719 c -5.070313 0 -9.152344 4.082031 -9.152344 9.152343 v 5.015626 h 85.59375 c 0.933594 0 1.832031 -0.140626 2.683594 -0.398438 v -4.617188 c 0 -5.070312 -4.082032 -9.152343 -9.152344 -9.152343 z m 0 0" fill="#5e5c64"/>
    <path d="m 33.382812 79.523438 l 3.066407 -2.527344 c -1.550781 -1.882813 -2.808594 -4.015625 -3.707031 -6.28125 l -3.691407 1.464844 c 1.054688 2.65625 2.515625 5.132812 4.332031 7.34375 z m 2.957032 3.078124 c 2.128906 1.902344 4.539062 3.46875 7.144531 4.640626 l 1.628906 -3.621094 c -2.234375 -1.007813 -4.300781 -2.347656 -6.125 -3.980469 z m -8.558594 -14.5 l 3.871094 -0.886718 c -0.546875 -2.386719 -0.726563 -4.84375 -0.53125 -7.285156 l -3.957032 -0.328126 c -0.230468 2.847657 -0.023437 5.714844 0.617188 8.5 z m 26.21875 25.683594 c 9.871094 11.730469 27.441406 13.246094 39.171875 3.375 c 11.730469 -9.867187 13.242187 -27.4375 3.375 -39.167968 c -4.570313 -5.429688 -10.789063 -8.660157 -17.316406 -9.59375 c 0 -0.003907 -0.003907 -0.007813 -0.003907 -0.011719 c -0.070312 -0.007813 -0.140624 -0.015625 -0.207031 -0.023438 l -0.132812 -0.015625 c -0.921875 -0.121094 -1.847657 -0.195312 -2.777344 -0.21875 c -0.097656 -0.003906 -0.195313 -0.007812 -0.292969 -0.011718 c -0.480468 -0.007813 -0.964844 -0.007813 -1.445312 0.003906 c 0.222656 0.316406 0.4375 0.632812 0.640625 0.953125 c 0.136719 0.214843 0.265625 0.433593 0.394531 0.652343 c 0.066406 0.109376 0.136719 0.214844 0.199219 0.324219 c 0.183593 0.324219 0.363281 0.652344 0.535156 0.984375 c 0.144531 0.289063 0.285156 0.578125 0.421875 0.875 c 0.023438 0.046875 0.046875 0.09375 0.066406 0.140625 c 4.308594 9.484375 2.003906 21.011719 -6.371094 28.058594 c -5.054687 4.265625 -11.664062 6.230469 -18.230468 5.417969 c -0.175782 -0.023438 -0.347656 -0.042969 -0.523438 -0.070313 c -0.261718 -0.039062 -0.523437 -0.082031 -0.785156 -0.128906 c -0.160156 -0.027344 -0.320312 -0.054687 -0.480469 -0.085937 c -0.414062 -0.082032 -0.828125 -0.171876 -1.238281 -0.277344 c 0.261719 0.757812 0.554688 1.503906 0.882812 2.234375 l 0.007813 0.023437 c 0.097656 0.214844 0.203125 0.429688 0.304687 0.644532 c 0.074219 0.160156 0.148438 0.320312 0.226563 0.480468 c 0.128906 0.253906 0.265625 0.503906 0.398437 0.757813 c 0.050782 0.089843 0.09375 0.179687 0.144532 0.269531 h 0.003906 c 0.863281 1.566406 1.878906 3.042969 3.03125 4.410156 z m -26.160156 -38.402344 l 3.863281 0.929688 c 0.574219 -2.378906 1.511719 -4.65625 2.78125 -6.75 l -3.398437 -2.058594 c -1.480469 2.441406 -2.574219 5.101563 -3.246094 7.878906 z m 5.726562 -11.351562 l 3.046875 2.546875 c 1.566407 -1.875 3.429688 -3.507813 5.488281 -4.816406 l -2.128906 -3.351563 c -2.410156 1.527344 -4.574218 3.433594 -6.40625 5.621094 z m 11.765625 -3.988281 c 2.25 -0.976563 4.632813 -1.605469 7.066407 -1.859375 l -0.414063 -3.953125 c -2.839844 0.300781 -5.621094 1.03125 -8.238281 2.171875 z m 10.730469 -1.964844 c 2.445312 0.117187 4.855469 0.617187 7.144531 1.472656 l 1.394531 -3.714843 c -2.675781 -1.003907 -5.492187 -1.585938 -8.347656 -1.726563 z m 10.46875 3.019531 c 2.136719 1.199219 4.074219 2.71875 5.75 4.503906 l 2.898438 -2.710937 c -1.953126 -2.085937 -4.214844 -3.859375 -6.703126 -5.257813 z m 0 0" fill="#5e5c64"/>
    <g stroke="#f4ecd8" stroke-linecap="round" stroke-linejoin="round" stroke-miterlimit="10" stroke-width="0.659265">
        <path d="m 18.505594 21.999461 h -13.010521 c -0.270043 0 -0.500849 -0.219155 -0.500849 -0.498767 v -18.000953 c 0 -0.269536 0.221574 -0.498767 0.500849 -0.498767 h 13.010521 c 0.270043 0 0.49854 0.219155 0.49854 0.498767 v 18.011029 c -0.009232 0.269536 -0.228497 0.488691 -0.49854 0.488691 z m 0 0" fill="#77767b" transform="matrix(1.69244 0 0 1.550699 32.992886 42.877642)"/>
        <path d="m 12.993952 18.999302 h 3.000475" fill="none" transform="matrix(1.69244 0 0 1.550699 32.992886 42.877642)"/>
        <path d="m 7.994699 9.998826 h 7.000339" fill="none" transform="matrix(1.69244 0 0 1.550699 32.992886 42.877642)"/>
        <path d="m 7.994699 11.998931 h 7.000339" fill="none" transform="matrix(1.69244 0 0 1.550699 32.992886 42.877642)"/>
        <path d="m 7.994699 8.001239 h 7.999728" fill="none" transform="matrix(1.69244 0 0 1.550699 32.992886 42.877642)"/>
        <path d="m 7.994699 6.001133 h 7.999728" fill="none" transform="matrix(1.69244 0 0 1.550699 32.992886 42.877642)"/>
        <path d="m 7.994699 13.999037 h 5.43086" fill="none" transform="matrix(1.69244 0 0 1.550699 32.992886 42.877642)"/>
        <path d="m 18.503494 22.001196 l -13.008987 0.001383 c -0.269726 -0.005119 -0.499028 -0.223106 -0.499902 -0.50027 l 0.001163 -18.003033 c -0.000966 -0.271392 0.219552 -0.498163 0.499947 -0.498616 l 13.008987 -0.001382 c 0.269819 -0.000653 0.499029 0.223105 0.499903 0.50027 l -0.001256 18.008805 c -0.009611 0.271191 -0.230036 0.49219 -0.499855 0.492843 z m 0 0" fill="#77767b" transform="matrix(-0.738373 0.0128398 -0.0117645 -0.676534 92.89397 92.670424)"/>
        <path d="m 12.996476 18.998176 l 2.999641 -0.000809" fill="#77767b" transform="matrix(-0.738373 0.0128398 -0.0117645 -0.676534 92.89397 92.670424)"/>
        <path d="m 7.997628 9.999933 l 6.999129 0.000035" fill="#77767b" transform="matrix(-0.738373 0.0128398 -0.0117645 -0.676534 92.89397 92.670424)"/>
        <path d="m 7.997539 11.997704 l 6.99913 0.000036" fill="#77767b" transform="matrix(-0.738373 0.0128398 -0.0117645 -0.676534 92.89397 92.670424)"/>
        <path d="m 7.992427 8.002061 l 8.00436 -0.003982" fill="#77767b" transform="matrix(-0.738373 0.0128398 -0.0117645 -0.676534 92.89397 92.670424)"/>
        <path d="m 7.992608 5.998517 l 8.004267 0.00179" fill="#77767b" transform="matrix(-0.738373 0.0128398 -0.0117645 -0.676534 92.89397 92.670424)"/>
        <path d="m 7.997359 14.001248 l 5.427911 -0.000915" fill="#77767b" transform="matrix(-0.738373 0.0128398 -0.0117645 -0.676534 92.89397 92.670424)"/>
    </g>
</svg>
