<?xml version="1.0" encoding="UTF-8"?>
<svg height="128px" viewBox="0 0 128 128" width="128px" xmlns="http://www.w3.org/2000/svg">
    <path d="m 102.09375 119.988281 h -72.230469 c -4.429687 0 -8.023437 -3.59375 -8.023437 -8.023437 v -14.296875 c 0 -4.429688 3.59375 -8.023438 8.023437 -8.023438 h 72.230469 c 4.429688 0 8.023438 3.59375 8.023438 8.023438 v 14.296875 c 0 4.429687 -3.59375 8.023437 -8.023438 8.023437 z m 0 0" fill="#1a5fb4"/>
    <path d="m 100.964844 113.96875 h -69.972656 c -5.054688 0 -9.152344 -4.097656 -9.152344 -9.152344 v -88.152344 c 0 -5.054687 4.097656 -9.152343 9.152344 -9.152343 h 69.972656 c 5.054687 0 9.152344 4.097656 9.152344 9.152343 v 88.152344 c 0 5.054688 -4.097657 9.152344 -9.152344 9.152344 z m 0 0" fill="#ffffff"/>
    <path d="m 30.992188 9.515625 c -5.070313 0 -9.152344 4.082031 -9.152344 9.15625 v 5.015625 h 85.59375 c 0.933594 0 1.832031 -0.144531 2.683594 -0.402344 v -4.613281 c 0 -5.074219 -4.082032 -9.15625 -9.152344 -9.15625 z m 0 0" fill="#1a5fb4"/>
    <path d="m 30.992188 7.511719 c -5.070313 0 -9.152344 4.082031 -9.152344 9.152343 v 5.015626 h 85.59375 c 0.933594 0 1.832031 -0.140626 2.683594 -0.398438 v -4.617188 c 0 -5.070312 -4.082032 -9.152343 -9.152344 -9.152343 z m 0 0" fill="#3584e4"/>
    <path d="m 43.753906 32.5625 c -2.65625 0.324219 -5.121094 2.996094 -5.851562 6.335938 c -0.140625 0.636718 -0.144532 1.691406 -0.144532 29.824218 v 29.164063 l 0.183594 0.753906 c 0.742188 3.050781 2.550782 5.207031 5.085938 6.058594 l 0.765625 0.253906 l 10.984375 -0.019531 c 12.128906 -0.023438 11.320312 0.015625 12.304687 -0.621094 c 0.632813 -0.410156 1.339844 -1.285156 1.6875 -2.097656 c 0.5625 -1.304688 0.527344 -0.179688 0.527344 -16.242188 l -0.003906 -14.46875 l -0.160157 -0.320312 c -0.085937 -0.179688 -0.414062 -0.734375 -0.71875 -1.238282 l -0.5625 -0.910156 l 0.636719 -1.015625 c 0.347657 -0.558593 0.671875 -1.175781 0.71875 -1.367187 c 0.152344 -0.609375 0.121094 -29.390625 -0.027343 -30.113282 c -0.402344 -1.921874 -1.570313 -3.410156 -3.027344 -3.855468 c -0.503906 -0.152344 -21.21875 -0.269532 -22.398438 -0.121094 m 26.082032 -0.058594 c 0 0.027344 0.144531 0.25 0.316406 0.488282 c 0.410156 0.566406 0.796875 1.574218 0.960937 2.492187 l 0.132813 0.730469 h 14.296875 l 0.019531 3.507812 c 0.03125 4.328125 0.121094 4.746094 1.378906 6.285156 c 1.148438 1.40625 1.796875 1.609376 5.234375 1.609376 h 2.582031 v 49.460937 l -0.179687 0.699219 c -0.398437 1.519531 -1.257813 2.585937 -2.574219 3.195312 l -0.457031 0.214844 l -10.199219 0.023438 l -10.195312 0.027343 v 0.304688 c -0.003906 0.785156 -0.355469 1.839843 -0.914063 2.726562 c -0.222656 0.347657 -0.402343 0.652344 -0.402343 0.683594 c 0 0.132813 21.171874 0.046875 21.902343 -0.089844 c 2.632813 -0.488281 4.703125 -2.421875 5.605469 -5.230469 c 0.515625 -1.609374 0.46875 1.089844 0.492188 -28.230468 l 0.019531 -26.488282 l -0.21875 -0.394531 c -0.386719 -0.703125 -9.449219 -11.703125 -9.800781 -11.898437 c -0.3125 -0.171875 -18 -0.289063 -18 -0.117188 m -4.363282 3.890625 c 0.195313 0.105469 0.386719 0.3125 0.503906 0.539063 l 0.183594 0.363281 l 0.019532 14.121094 c 0.019531 13.363281 0.015624 14.132812 -0.113282 14.332031 c -2.058594 3.222656 -2.074218 3.386719 -0.589844 5.785156 l 0.726563 1.179688 l -0.023437 13.78125 c -0.019532 15.464844 0.035156 13.960937 -0.550782 14.496094 c -0.273437 0.246093 -21.003906 0.3125 -21.757812 0.070312 c -1.28125 -0.414062 -2.351563 -1.617188 -2.847656 -3.191406 l -0.167969 -0.546875 v -57.386719 l 0.167969 -0.542969 c 0.488281 -1.550781 1.65625 -2.777343 2.925781 -3.070312 c 0.839843 -0.195313 21.164062 -0.128907 21.523437 0.070312 m 25.898438 7.433594 c -1.664063 0.03125 -1.800782 0.007813 -2.195313 -0.425781 c -0.515625 -0.570313 -0.539062 -0.671875 -0.578125 -2.789063 l -0.035156 -1.902343 l 2.09375 2.542968 l 2.089844 2.546875 z m -46.515625 2.574219 c -0.695313 0.246094 -0.820313 2.390625 -0.167969 2.816406 c 0.273438 0.179688 11.261719 0.125 11.488281 -0.054688 c 0.460938 -0.371093 0.5 -1.972656 0.058594 -2.511718 l -0.253906 -0.308594 l -5.433594 -0.015625 c -3.332031 -0.011719 -5.535156 0.015625 -5.691406 0.074219 m -0.070313 7.757812 c -0.578125 0.3125 -0.710937 2.046875 -0.195312 2.605469 l 0.25 0.273437 h 8.117187 c 8.019531 0 8.117188 -0.003906 8.3125 -0.191406 c 0.503907 -0.480468 0.480469 -2.308594 -0.03125 -2.640625 c -0.28125 -0.183593 -16.113281 -0.230469 -16.453125 -0.046875 m 33.308594 -0.042968 l -4.632812 0.046874 l -0.1875 0.265626 c -0.324219 0.460937 -0.277344 1.855468 0.078124 2.289062 l 0.261719 0.320312 h 8.480469 c 10.007812 0 9.105469 0.152344 9.105469 -1.539062 c 0 -1.660156 1.1875 -1.535156 -13.105469 -1.382812 m -33.402344 7.859374 c -0.578125 0.390626 -0.550781 2.3125 0.035156 2.699219 c 0.183594 0.117188 1.347657 0.136719 8.296876 0.136719 h 8.082031 l 0.226562 -0.308594 c 0.34375 -0.46875 0.34375 -1.964844 -0.003906 -2.382812 l -0.222656 -0.277344 l -8.113281 0.003906 c -6.585938 0 -8.148438 0.027344 -8.300782 0.128906 m 28.621094 0.140626 c -0.292969 0.359374 -0.335938 1.714843 -0.074219 2.242187 c 0.257813 0.511719 0.085938 0.503906 9.128907 0.476563 l 8.363281 -0.023438 l 0.214843 -0.261719 c 0.25 -0.308593 0.355469 -1.609375 0.171876 -2.152343 c -0.199219 -0.585938 0.289062 -0.554688 -9.054688 -0.554688 h -8.523438 z m -28.609375 7.640624 c -0.585937 0.433594 -0.566406 2.390626 0.027344 2.71875 c 0.140625 0.078126 2.398437 0.109376 8.277343 0.109376 h 8.082032 l 0.242187 -0.265626 c 0.445313 -0.484374 0.40625 -2.113281 -0.0625 -2.558593 c -0.3125 -0.296875 -16.167969 -0.300781 -16.566406 -0.003907 m 28.640625 0.140626 l -0.269531 0.332031 l 0.023437 0.902343 c 0.027344 0.882813 0.035156 0.910157 0.28125 1.179688 l 0.253906 0.273438 h 17.113282 l 0.226562 -0.277344 c 0.34375 -0.417969 0.34375 -1.914063 0 -2.382813 l -0.226562 -0.308593 l -8.566406 -0.023438 l -8.5625 -0.027344 z m -28.597656 7.640624 c -0.480469 0.316407 -0.570313 2.007813 -0.136719 2.535157 l 0.234375 0.285156 h 16.238281 l 0.238281 -0.277344 c 0.355469 -0.417969 0.363282 -1.984375 0.007813 -2.414062 l -0.222656 -0.277344 l -8.074219 0.003906 c -6.976562 0 -8.105469 0.023438 -8.285156 0.140625 m 28.84375 -0.054687 c -0.53125 0.265625 -0.703125 2.0625 -0.25 2.617187 l 0.214844 0.261719 h 17.175781 l 0.214843 -0.261719 c 0.199219 -0.242187 0.214844 -0.324218 0.242188 -1.15625 l 0.023438 -0.894531 l -0.539063 -0.65625 l -8.464844 0.003906 c -4.652343 0.003907 -8.53125 0.042969 -8.617187 0.082031 m -28.710938 7.730469 c -0.621094 0.3125 -0.8125 2.078125 -0.289062 2.648438 l 0.25 0.277343 h 8.054687 c 5.777344 0 8.101563 -0.03125 8.222657 -0.105468 c 0.734374 -0.460938 0.613281 -2.550782 -0.164063 -2.8125 c -0.347656 -0.117188 -15.84375 -0.125 -16.074219 -0.007813 m 28.699219 0.046875 c -0.574219 0.304688 -0.71875 1.957032 -0.226563 2.558594 l 0.261719 0.320312 h 17.058594 l 0.261719 -0.320312 c 0.382812 -0.464844 0.402344 -1.839844 0.039062 -2.339844 l -0.226562 -0.308594 l -8.460938 -0.019531 c -7.097656 -0.019531 -8.503906 0 -8.707031 0.109375 m -28.976563 7.679688 c -0.21875 0.265625 -0.226562 0.300781 -0.222656 1.199218 c 0.003906 1.621094 -0.210937 1.539063 3.996094 1.539063 h 3.425781 l 0.546875 -0.585937 v -0.890626 c 0 -1.625 0.230469 -1.539062 -4.066406 -1.539062 h -3.453125 z" fill="#1a5fb4" fill-rule="evenodd"/>
</svg>
